<svg width="12" height="12" viewBox="0 0 12 12" fill="none" xmlns="http://www.w3.org/2000/svg">
<rect x="0.4" y="0.4" width="11.2" height="11.2" rx="5.6" fill="black"/>
<path fill-rule="evenodd" clip-rule="evenodd" d="M6 3C5.72386 3 5.5 3.22386 5.5 3.5V5.5H3.5C3.22386 5.5 3 5.72386 3 6C3 6.27614 3.22386 6.5 3.5 6.5H5.5V8.5C5.5 8.77614 5.72386 9 6 9C6.27614 9 6.5 8.77614 6.5 8.5V6.5H8.5C8.77614 6.5 9 6.27614 9 6C9 5.72386 8.77614 5.5 8.5 5.5H6.5V3.5C6.5 3.22386 6.27614 3 6 3Z" fill="#6E6E6E"/>
<rect x="0.4" y="0.4" width="11.2" height="11.2" rx="5.6" stroke="#6E6E6E" stroke-width="0.8"/>
</svg>
